<svg width="1538.737548828125px" height="298.4174865722656px" xmlns="http://www.w3.org/2000/svg" viewBox="-519.3687744140625 -74.2087432861328 1538.737548828125 298.4174865722656" style="background: rgba(0, 0, 0, 0);" preserveAspectRatio="xMidYMid"><defs><filter id="editing-extrude-glow"><feFlood flood-color="#333333" result="flood-1"></feFlood><feMorphology operator="erode" radius="1" in="SourceAlpha" result="erode"></feMorphology><feComposite operator="in" in="flood-1" in2="erode" result="comp1"></feComposite><feConvolveMatrix order="3,3" divisor="1" in="comp1" result="convolve" kernelMatrix="0 0 0 1 1 1 0 0 0"></feConvolveMatrix><feOffset dx="-3" dy="0" in="convolve" result="extrude"></feOffset><feComposite operator="in" in="flood-1" in2="extrude" result="comp-extrude"></feComposite><feFlood flood-color="#000000" result="flood-2"></feFlood><feComposite operator="in" in="flood-2" in2="SourceAlpha" result="comp2"></feComposite><feMorphology operator="dilate" radius="1" in="comp2" result="dilate"></feMorphology><feOffset dx="-4.5" dy="0" in="dilate" result="offset"></feOffset><feGaussianBlur in="offset" stdDeviation="5.8" result="blur"></feGaussianBlur><feComponentTransfer in="blur" result="shadow"><feFuncA type="linear" slope="0.8" intercept="-0.2"></feFuncA></feComponentTransfer><feMerge><feMergeNode in="shadow"></feMergeNode><feMergeNode in="comp-extrude"></feMergeNode><feMergeNode in="SourceGraphic"></feMergeNode></feMerge></filter></defs><g filter="url(#editing-extrude-glow)"><g transform="translate(-308.3600196838379, 156.93000030517578)"><path d="M17.07-85.71L17.07-85.71L17.07-85.71Q11.09-90.29 11.09-100.06L11.09-100.06L11.09-100.06Q11.09-109.82 17.51-114.93L17.51-114.93L17.51-114.93Q23.94-120.03 35.02-120.03L35.02-120.03L35.02-120.03Q42.06-120.03 58.78-117.57L58.78-117.57L70.75-115.81L70.75-115.81Q76.74-115.10 82.98-115.10L82.98-115.10L82.98-115.10Q89.23-115.10 93.46-117.74L93.46-117.74L93.46-117.74Q99.79-112.11 99.79-104.02L99.79-104.02L99.79-104.02Q99.79-95.92 92.58-90.11L92.58-90.11L92.58-90.11Q85.18-83.95 75.68-83.95L75.68-83.95L75.68-83.95Q71.10-83.95 63.71-85.18L63.71-85.18L63.71-85.18Q55.09-58.08 55.09-39.25L55.09-39.25L55.09-39.25Q55.09-20.42 64.59-10.56L64.59-10.56L64.59-10.56Q60.19-2.64 53.68 0.44L53.68 0.44L53.68 0.44Q47.17 3.52 37.40 3.52L37.40 3.52L37.40 3.52Q27.63 3.52 21.56-1.85L21.56-1.85L21.56-1.85Q15.49-7.22 15.49-18.30L15.49-18.30L15.49-18.30Q15.49-31.15 22.53-52.27L22.53-52.27L22.53-52.27Q29.57-73.22 40.13-89.23L40.13-89.23L40.13-89.23Q35.02-89.76 29.74-89.76L29.74-89.76L29.74-89.76Q18.83-89.76 17.07-85.71ZM182.69-19.54L182.69-19.54L182.69-19.54Q182.69-11.79 190.61-9.50L190.61-9.50L190.61-9.50Q188.67-2.99 181.10 0.53L181.10 0.53L181.10 0.53Q174.77 3.52 167.82 3.52L167.82 3.52L167.82 3.52Q160.86 3.52 157.26 1.67L157.26 1.67L157.26 1.67Q153.65-0.18 151.71-3.17L151.71-3.17L151.71-3.17Q148.54-7.74 148.54-16.37L148.54-16.37L148.54-16.37Q148.54-21.47 151.36-35.55L151.36-35.55L153.82-48.93L153.82-48.93Q156.82-64.24 156.82-69.87L156.82-69.87L156.82-69.87Q156.82-79.73 151.36-79.73L151.36-79.73L151.36-79.73Q144.50-79.73 140.10-69.70L140.10-69.70L140.10-69.70Q138.34-65.82 137.10-60.02L137.10-60.02L125.14 0L89.76 3.52L114.58-123.20L149.95-126.72L148.54-119.68L148.54-119.68Q143.62-92.58 139.39-83.42L139.39-83.42L139.39-83.42Q149.25-93.28 167.38-93.28L167.38-93.28L167.38-93.28Q186.56-93.28 190.08-80.61L190.08-80.61L190.08-80.61Q191.31-76.56 191.31-73.04L191.31-73.04L191.31-73.04Q191.31-69.52 191.05-66.79L191.05-66.79L191.05-66.79Q190.78-64.06 189.90-59.14L189.90-59.14L187.62-46.46L183.57-26.58L183.57-26.58Q182.69-22.53 182.69-19.54ZM247.10-9.68L247.10-9.68L247.10-9.68Q241.65 3.52 224.22 3.52L224.22 3.52L224.22 3.52Q215.25 3.52 209.62-2.64L209.62-2.64L209.62-2.64Q204.86-8.10 204.86-13.55L204.86-13.55L204.86-13.55Q204.86-27.81 211.38-55.62L211.38-55.62L217.89-89.76L253.62-93.28L242.88-37.66L242.88-37.66Q239.89-24.64 239.89-20.06L239.89-20.06L239.89-20.06Q239.89-10.03 247.10-9.68ZM221.06-114.22L221.06-114.22L221.06-114.22Q221.06-121.09 226.78-124.78L226.78-124.78L226.78-124.78Q232.50-128.48 240.77-128.48L240.77-128.48L240.77-128.48Q249.04-128.48 254.06-124.78L254.06-124.78L254.06-124.78Q259.07-121.09 259.07-114.22L259.07-114.22L259.07-114.22Q259.07-107.36 253.53-103.84L253.53-103.84L253.53-103.84Q247.98-100.32 239.71-100.32L239.71-100.32L239.71-100.32Q231.44-100.32 226.25-103.84L226.25-103.84L226.25-103.84Q221.06-107.36 221.06-114.22ZM333.34-29.74L333.34-29.74L333.34-29.74Q337.74-26.75 337.74-20.15L337.74-20.15L337.74-20.15Q337.74-13.55 334.40-9.33L334.40-9.33L334.40-9.33Q331.06-5.10 325.60-2.29L325.60-2.29L325.60-2.29Q314.34 3.52 302.19 3.52L302.19 3.52L302.19 3.52Q290.05 3.52 282.92 0.88L282.92 0.88L282.92 0.88Q275.79-1.76 271.04-6.69L271.04-6.69L271.04-6.69Q261.71-16.02 261.71-33.09L261.71-33.09L261.71-33.09Q261.71-59.66 276.14-75.86L276.14-75.86L276.14-75.86Q291.63-93.28 318.56-93.28L318.56-93.28L318.56-93.28Q335.28-93.28 343.55-86.24L343.55-86.24L343.55-86.24Q349.71-80.96 349.71-72.34L349.71-72.34L349.71-72.34Q349.71-41.36 296.21-41.36L296.21-41.36L296.21-41.36Q295.50-36.78 295.50-32.91L295.50-32.91L295.50-32.91Q295.50-24.82 299.11-21.74L299.11-21.74L299.11-21.74Q302.72-18.66 309.41-18.66L309.41-18.66L309.41-18.66Q316.10-18.66 323.22-21.74L323.22-21.74L323.22-21.74Q330.35-24.82 333.34-29.74ZM297.44-48.93L297.44-48.93L297.44-48.93Q309.94-48.93 317.15-56.67L317.15-56.67L317.15-56.67Q324.37-64.06 324.37-75.86L324.37-75.86L324.37-75.86Q324.37-79.90 322.87-82.10L322.87-82.10L322.87-82.10Q321.38-84.30 318.38-84.30L318.38-84.30L318.38-84.30Q315.39-84.30 312.84-83.16L312.84-83.16L312.84-83.16Q310.29-82.02 307.65-78.14L307.65-78.14L307.65-78.14Q301.14-69.34 297.44-48.93ZM430.14 3.52L430.14 3.52L430.14 3.52Q408.85 3.52 408.85-13.02L408.85-13.02L408.85-13.02Q409.02-17.60 410.43-25.34L410.43-25.34L413.60-41.54L413.60-41.54Q418.35-64.42 418.35-69.52L418.35-69.52L418.35-69.52Q418.35-79.73 412.37-79.73L412.37-79.73L412.37-79.73Q402.34-79.73 397.06-53.50L397.06-53.50L386.67 0L351.30 3.52L369.60-89.94L398.46-93.28L395.65-76.03L395.65-76.03Q403.92-93.28 429.26-93.28L429.26-93.28L429.26-93.28Q441.58-93.28 446.78-88.09L446.78-88.09L446.78-88.09Q451.97-82.90 451.97-71.28L451.97-71.28L451.97-71.28Q451.97-60.37 446.34-34.85L446.34-34.85L446.34-34.85Q443.70-23.41 443.70-19.10L443.70-19.10L443.70-19.10Q443.70-14.78 446.07-12.32L446.07-12.32L446.07-12.32Q448.45-9.86 451.97-9.50L451.97-9.50L451.97-9.50Q450.21-3.52 444.14 0L444.14 0L444.14 0Q438.06 3.52 430.14 3.52ZM484.18 0L464.82 0L485.94-116.16L523.78-116.16L551.23-36.26L565.84-116.16L585.38-115.98L563.90 0L523.60 0L498.26-76.91L484.18 0ZM602.27-73.57L602.27-73.57L602.27-73.57Q608.26-82.02 617.32-87.65L617.32-87.65L617.32-87.65Q626.38-93.28 637.47-93.28L637.47-93.28L637.47-93.28Q648.56-93.28 653.84-89.76L653.84-89.76L688.34-93.28L676.37-25.70L676.37-25.70Q670.21 8.80 657.18 22.35L657.18 22.35L657.18 22.35Q644.69 35.20 620.40 35.20L620.40 35.20L620.40 35.20Q601.92 35.20 591.36 29.39L591.36 29.39L591.36 29.39Q580.80 23.58 580.80 13.90L580.80 13.90L580.80 13.90Q580.80 6.69 586.26 2.55L586.26 2.55L586.26 2.55Q591.71-1.58 600.16-1.58L600.16-1.58L600.16-1.58Q607.55-1.58 613.18 1.76L613.18 1.76L613.18 1.76Q616.53 3.52 618.11 5.98L618.11 5.98L618.11 5.98Q614.06 9.50 614.06 15.31L614.06 15.31L614.06 15.31Q614.06 22.88 621.10 22.88L621.10 22.88L621.10 22.88Q632.90 22.88 639.58-4.93L639.58-4.93L639.58-4.93Q641.52-12.50 643.10-20.06L643.10-20.06L643.10-20.06Q635.18-10.38 617.23-10.38L617.23-10.38L617.23-10.38Q604.74-10.38 597.52-16.37L597.52-16.37L597.52-16.37Q590.30-22.35 590.30-36.43L590.30-36.43L590.30-36.43Q590.30-45.23 593.30-55.18L593.30-55.18L593.30-55.18Q596.29-65.12 602.27-73.57ZM625.15-35.90L625.15-35.90L625.15-35.90Q625.15-23.94 631.31-23.94L631.31-23.94L631.31-23.94Q635.54-23.94 639.58-28.51L639.58-28.51L639.58-28.51Q642.75-32.21 643.98-37.66L643.98-37.66L652.96-82.90L652.96-82.90Q652.08-83.07 651.20-83.42L651.20-83.42L651.20-83.42Q649.44-84.13 647.15-84.13L647.15-84.13L647.15-84.13Q636.42-84.13 630.08-66.53L630.08-66.53L630.08-66.53Q625.15-52.80 625.15-35.90ZM751.70-7.39L751.70-7.39L751.70-7.39Q743.25 3.52 722.30 3.52L722.30 3.52L722.30 3.52Q711.39 3.52 703.47-3.08L703.47-3.08L703.47-3.08Q695.55-9.68 695.55-19.18L695.55-19.18L695.55-19.18Q695.55-24.46 696.08-27.10L696.08-27.10L707.87-89.76L743.60-93.28L730.75-25.34L730.75-25.34Q730.05-21.47 730.05-19.18L730.05-19.18L730.05-19.18Q730.05-8.98 736.21-8.98L736.21-8.98L736.21-8.98Q743.07-8.98 748-18.30L748-18.30L748-18.30Q749.58-21.30 750.29-25.17L750.29-25.17L762.78-89.76L797.46-93.28L784.43-24.64L784.43-24.64Q783.90-22 783.90-19.18L783.90-19.18L783.90-19.18Q783.90-16.37 785.49-13.29L785.49-13.29L785.49-13.29Q787.07-10.21 792.18-9.50L792.18-9.50L792.18-9.50Q791.12-5.28 787.42-2.46L787.42-2.46L787.42-2.46Q779.68 3.52 771.32 3.52L771.32 3.52L771.32 3.52Q762.96 3.52 758.03 0.53L758.03 0.53L758.03 0.53Q753.10-2.46 751.70-7.39ZM862.93-19.89L862.93-19.89L862.93-19.89Q853.78-10.38 837.06-10.38L837.06-10.38L837.06-10.38Q816.11-10.38 811.71-25.70L811.71-25.70L811.71-25.70Q810.30-30.27 810.30-35.38L810.30-35.38L810.30-35.38Q810.30-40.48 811.36-45.76L811.36-45.76L819.63-89.76L855.36-93.28L845.68-42.06L845.68-42.06Q845.33-39.78 844.80-37.31L844.80-37.31L844.80-37.31Q844.27-34.85 844.27-32.30L844.27-32.30L844.27-32.30Q844.27-29.74 845.15-28.07L845.15-28.07L845.15-28.07Q846.03-26.40 847.26-25.34L847.26-25.34L847.26-25.34Q849.38-23.94 853.16-23.94L853.16-23.94L853.16-23.94Q856.94-23.94 860.20-28.51L860.20-28.51L860.20-28.51Q863.46-33.09 865.04-41.01L865.04-41.01L874.72-89.76L909.39-93.28L896.19-24.11L896.19-24.11Q889.68 9.68 876.30 23.06L876.30 23.06L876.30 23.06Q869.44 29.92 860.55 32.65L860.55 32.65L860.55 32.65Q851.66 35.38 840.22 35.38L840.22 35.38L840.22 35.38Q821.74 35.38 811.18 29.57L811.18 29.57L811.18 29.57Q800.62 23.76 800.62 14.08L800.62 14.08L800.62 14.08Q800.62 6.86 806.08 2.73L806.08 2.73L806.08 2.73Q811.54-1.41 819.98-1.41L819.98-1.41L819.98-1.41Q827.38-1.41 833.01 1.76L833.01 1.76L833.01 1.76Q836.35 3.70 837.94 6.16L837.94 6.16L837.94 6.16Q833.89 9.68 833.89 15.49L833.89 15.49L833.89 15.49Q833.89 23.23 840.93 23.23L840.93 23.23L840.93 23.23Q852.54 23.23 859.23-3.52L859.23-3.52L859.23-3.52Q861.17-11.44 862.93-19.89ZM987.01-29.74L987.01-29.74L987.01-29.74Q991.41-26.75 991.41-20.15L991.41-20.15L991.41-20.15Q991.41-13.55 988.06-9.33L988.06-9.33L988.06-9.33Q984.72-5.10 979.26-2.29L979.26-2.29L979.26-2.29Q968 3.52 955.86 3.52L955.86 3.52L955.86 3.52Q943.71 3.52 936.58 0.88L936.58 0.88L936.58 0.88Q929.46-1.76 924.70-6.69L924.70-6.69L924.70-6.69Q915.38-16.02 915.38-33.09L915.38-33.09L915.38-33.09Q915.38-59.66 929.81-75.86L929.81-75.86L929.81-75.86Q945.30-93.28 972.22-93.28L972.22-93.28L972.22-93.28Q988.94-93.28 997.22-86.24L997.22-86.24L997.22-86.24Q1003.38-80.96 1003.38-72.34L1003.38-72.34L1003.38-72.34Q1003.38-41.36 949.87-41.36L949.87-41.36L949.87-41.36Q949.17-36.78 949.17-32.91L949.17-32.91L949.17-32.91Q949.17-24.82 952.78-21.74L952.78-21.74L952.78-21.74Q956.38-18.66 963.07-18.66L963.07-18.66L963.07-18.66Q969.76-18.66 976.89-21.74L976.89-21.74L976.89-21.74Q984.02-24.82 987.01-29.74ZM951.10-48.93L951.10-48.93L951.10-48.93Q963.60-48.93 970.82-56.67L970.82-56.67L970.82-56.67Q978.03-64.06 978.03-75.86L978.03-75.86L978.03-75.86Q978.03-79.90 976.54-82.10L976.54-82.10L976.54-82.10Q975.04-84.30 972.05-84.30L972.05-84.30L972.05-84.30Q969.06-84.30 966.50-83.16L966.50-83.16L966.50-83.16Q963.95-82.02 961.31-78.14L961.31-78.14L961.31-78.14Q954.80-69.34 951.10-48.93ZM1083.81 3.52L1083.81 3.52L1083.81 3.52Q1062.51 3.52 1062.51-13.02L1062.51-13.02L1062.51-13.02Q1062.69-17.60 1064.10-25.34L1064.10-25.34L1067.26-41.54L1067.26-41.54Q1072.02-64.42 1072.02-69.52L1072.02-69.52L1072.02-69.52Q1072.02-79.73 1066.03-79.73L1066.03-79.73L1066.03-79.73Q1056-79.73 1050.72-53.50L1050.72-53.50L1040.34 0L1004.96 3.52L1023.26-89.94L1052.13-93.28L1049.31-76.03L1049.31-76.03Q1057.58-93.28 1082.93-93.28L1082.93-93.28L1082.93-93.28Q1095.25-93.28 1100.44-88.09L1100.44-88.09L1100.44-88.09Q1105.63-82.90 1105.63-71.28L1105.63-71.28L1105.63-71.28Q1105.63-60.37 1100-34.85L1100-34.85L1100-34.85Q1097.36-23.41 1097.36-19.10L1097.36-19.10L1097.36-19.10Q1097.36-14.78 1099.74-12.32L1099.74-12.32L1099.74-12.32Q1102.11-9.86 1105.63-9.50L1105.63-9.50L1105.63-9.50Q1103.87-3.52 1097.80 0L1097.80 0L1097.80 0Q1091.73 3.52 1083.81 3.52Z" fill="#eb6c6c"></path></g></g><style>text {
  font-size: 64px;
  font-family: Arial Black;
  dominant-baseline: central;
  text-anchor: middle;
}</style></svg>